<svg width="12" height="10" viewBox="0 0 12 10" fill="none" xmlns="http://www.w3.org/2000/svg">
<path d="M11.001 9.44433H0.999031C0.735078 9.44433 0.481847 9.3399 0.294656 9.1538C0.107466 8.9677 0.0015334 8.71504 0 8.45111V2.17812C0.0015334 1.60091 0.231508 1.04779 0.639653 0.639648C1.0478 0.231502 1.60092 0.00152759 2.17812 0H9.82188C10.3996 0 10.9536 0.229475 11.362 0.637951C11.7705 1.04643 12 1.60044 12 2.17812V8.45111C11.9985 8.71504 11.8925 8.9677 11.7053 9.1538C11.5181 9.3399 11.2649 9.44433 11.001 9.44433ZM2.17812 0.871249C1.83152 0.871249 1.49911 1.00893 1.25402 1.25402C1.00894 1.49911 0.871248 1.83152 0.871248 2.17812V8.45111C0.871231 8.46761 0.874571 8.48399 0.881059 8.49915C0.887547 8.51436 0.897055 8.52807 0.909002 8.53946C0.92095 8.5509 0.935093 8.55973 0.950567 8.56554C0.966046 8.57129 0.982536 8.57384 0.999031 8.57309H11.001C11.0175 8.57384 11.034 8.57129 11.0494 8.56554C11.0649 8.55973 11.079 8.5509 11.091 8.53946C11.103 8.52807 11.1124 8.51436 11.1189 8.49915C11.1254 8.48399 11.1288 8.46761 11.1288 8.45111V2.17812C11.1288 1.83152 10.991 1.49911 10.746 1.25402C10.5009 1.00893 10.1685 0.871249 9.82188 0.871249H2.17812Z" fill="#C6AE98"/>
<path d="M5.99443 6.7783C5.58802 6.77713 5.19102 6.65556 4.85367 6.42898C4.51631 6.20234 4.25368 5.88079 4.09895 5.50499C3.94421 5.1292 3.90432 4.71593 3.98431 4.31748C4.0643 3.91897 4.26058 3.55318 4.54838 3.2662C4.83619 2.97922 5.20252 2.78397 5.60126 2.7051C5.99995 2.62623 6.41303 2.66729 6.78842 2.82308C7.16382 2.97888 7.48461 3.24242 7.71026 3.58041C7.93592 3.91845 8.05638 4.31574 8.05638 4.72215C8.05487 5.26801 7.83694 5.791 7.4504 6.17644C7.06386 6.56188 6.54029 6.7783 5.99443 6.7783ZM5.99443 3.56048C5.76465 3.56048 5.5401 3.62862 5.34906 3.75628C5.15803 3.88389 5.0091 4.06534 4.92117 4.27758C4.83329 4.48987 4.81026 4.72343 4.85507 4.94879C4.89991 5.17415 5.01056 5.3811 5.17301 5.54356C5.33547 5.70602 5.54248 5.81667 5.76779 5.86151C5.99315 5.90635 6.2267 5.88329 6.439 5.79541C6.65123 5.70747 6.83268 5.55855 6.96029 5.36751C7.08796 5.17653 7.15609 4.95193 7.15609 4.72215C7.15609 4.41408 7.03371 4.11861 6.81584 3.90074C6.59797 3.68287 6.3025 3.56048 5.99443 3.56048Z" fill="#C6AE98"/>
<path d="M11.5589 5.15738H7.61507C7.49954 5.15738 7.38872 5.1115 7.30699 5.02977C7.22533 4.94811 7.17944 4.83728 7.17944 4.72176C7.17944 4.60623 7.22533 4.49541 7.30699 4.41374C7.38872 4.33202 7.49954 4.28613 7.61507 4.28613H11.5589C11.6744 4.28613 11.7853 4.33202 11.8669 4.41374C11.9487 4.49541 11.9945 4.60623 11.9945 4.72176C11.9945 4.83728 11.9487 4.94811 11.8669 5.02977C11.7853 5.1115 11.6744 5.15738 11.5589 5.15738Z" fill="#C6AE98"/>
<path d="M4.37948 5.15738H0.435624C0.320091 5.15738 0.209285 5.1115 0.127591 5.02977C0.0458973 4.94811 0 4.83728 0 4.72176C0 4.60623 0.0458973 4.49541 0.127591 4.41374C0.209285 4.33202 0.320091 4.28613 0.435624 4.28613H4.37948C4.49501 4.28613 4.60581 4.33202 4.68751 4.41374C4.7692 4.49541 4.8151 4.60623 4.8151 4.72176C4.8151 4.83728 4.7692 4.94811 4.68751 5.02977C4.60581 5.1115 4.49501 5.15738 4.37948 5.15738Z" fill="#C6AE98"/>
</svg>
