<svg width="24" height="24" viewBox="0 0 24 24" fill="none" xmlns="http://www.w3.org/2000/svg">
<path d="M15.8277 16.4442H20.1944C19.8277 11.6053 17.7444 8.59978 15.0722 6.82201L16.2888 4.16645C16.3256 4.08218 16.3409 3.99011 16.3333 3.89848C16.3258 3.80685 16.2956 3.71853 16.2455 3.64144C16.1954 3.56436 16.1269 3.50091 16.0462 3.45679C15.9656 3.41268 15.8752 3.38927 15.7833 3.38867H8.16661C8.07467 3.38927 7.98432 3.41268 7.90365 3.45679C7.82299 3.50091 7.75453 3.56436 7.70442 3.64144C7.65432 3.71853 7.62413 3.80685 7.61656 3.89848C7.60899 3.99011 7.62428 4.08218 7.66106 4.16645L8.32772 5.61089H13.9499L13.4499 6.72201H12.4222C12.7361 7.56603 12.9668 8.43869 13.1111 9.32756C13.2045 9.87893 13.2639 10.4355 13.2888 10.9942L12.4111 11.6109C12.4134 10.8923 12.354 10.1748 12.2333 9.46645C12.0798 8.52366 11.815 7.60241 11.4444 6.72201H10.8888C10.3761 7.36982 9.91544 8.05714 9.51106 8.77756C9.18501 9.39553 8.90822 10.0383 8.68328 10.6998L7.92217 10.1942C8.14433 9.55486 8.41743 8.93436 8.73883 8.33867C9.06359 7.78008 9.41972 7.24033 9.8055 6.72201H8.83328L8.87772 6.81645C5.93328 8.77756 3.69439 12.222 3.69439 17.972C3.68688 18.0929 3.7034 18.214 3.74299 18.3285C3.78257 18.4429 3.84445 18.5484 3.92503 18.6388C4.00562 18.7292 4.10331 18.8027 4.21248 18.8552C4.32165 18.9076 4.44012 18.9379 4.56106 18.9442H9.0055C8.81466 18.7456 8.68289 18.4978 8.62496 18.2285C8.56703 17.9592 8.58522 17.6791 8.6775 17.4196C8.76977 17.16 8.93249 16.9313 9.14742 16.7591C9.36235 16.5868 9.621 16.4778 9.89439 16.4442C9.76134 16.2186 9.69042 15.9617 9.68883 15.6998C9.68883 15.302 9.84687 14.9204 10.1282 14.6391C10.4095 14.3578 10.791 14.1998 11.1888 14.1998H14.5222C14.92 14.1998 15.3015 14.3578 15.5828 14.6391C15.8641 14.9204 16.0222 15.302 16.0222 15.6998C16.025 15.9608 15.9579 16.2179 15.8277 16.4442V16.4442Z" fill="#C6AE98"/>
<path d="M14.0001 17.8329C14.0001 17.6856 13.9416 17.5442 13.8374 17.4401C13.7332 17.3359 13.5919 17.2773 13.4446 17.2773H10.1112C9.96388 17.2773 9.82257 17.3359 9.71838 17.4401C9.6142 17.5442 9.55566 17.6856 9.55566 17.8329C9.55566 17.9802 9.6142 18.1215 9.71838 18.2257C9.82257 18.3299 9.96388 18.3885 10.1112 18.3885H13.4446C13.5919 18.3885 13.7332 18.3299 13.8374 18.2257C13.9416 18.1215 14.0001 17.9802 14.0001 17.8329Z" fill="#C6AE98"/>
<path d="M14.5222 15.0557H11.1889C11.0415 15.0557 10.9002 15.1142 10.796 15.2184C10.6918 15.3226 10.6333 15.4639 10.6333 15.6112C10.6333 15.7586 10.6918 15.8999 10.796 16.0041C10.9002 16.1082 11.0415 16.1668 11.1889 16.1668H14.5222C14.6695 16.1668 14.8108 16.1082 14.915 16.0041C15.0192 15.8999 15.0777 15.7586 15.0777 15.6112C15.0777 15.4639 15.0192 15.3226 14.915 15.2184C14.8108 15.1142 14.6695 15.0557 14.5222 15.0557Z" fill="#C6AE98"/>
<path d="M14.2221 19.5H10.8888C10.7415 19.5 10.6002 19.5585 10.496 19.6627C10.3918 19.7669 10.3333 19.9082 10.3333 20.0556C10.3333 20.2029 10.3918 20.3442 10.496 20.4484C10.6002 20.5526 10.7415 20.6111 10.8888 20.6111H14.2221C14.3695 20.6111 14.5108 20.5526 14.615 20.4484C14.7192 20.3442 14.7777 20.2029 14.7777 20.0556C14.7777 19.9082 14.7192 19.7669 14.615 19.6627C14.5108 19.5585 14.3695 19.5 14.2221 19.5Z" fill="#C6AE98"/>
<path d="M20.1666 19.5H16.2777C16.1304 19.5 15.9891 19.5585 15.8849 19.6627C15.7807 19.7669 15.7222 19.9082 15.7222 20.0556C15.7222 20.2029 15.7807 20.3442 15.8849 20.4484C15.9891 20.5526 16.1304 20.6111 16.2777 20.6111H20.1666C20.314 20.6111 20.4553 20.5526 20.5595 20.4484C20.6636 20.3442 20.7222 20.2029 20.7222 20.0556C20.7222 19.9082 20.6636 19.7669 20.5595 19.6627C20.4553 19.5585 20.314 19.5 20.1666 19.5Z" fill="#C6AE98"/>
<path d="M20.7223 17.2773H16.8334C16.686 17.2773 16.5447 17.3359 16.4406 17.4401C16.3364 17.5442 16.2778 17.6856 16.2778 17.8329C16.2778 17.9802 16.3364 18.1215 16.4406 18.2257C16.5447 18.3299 16.686 18.3885 16.8334 18.3885H20.7223C20.8696 18.3885 21.0109 18.3299 21.1151 18.2257C21.2193 18.1215 21.2778 17.9802 21.2778 17.8329C21.2778 17.6856 21.2193 17.5442 21.1151 17.4401C21.0109 17.3359 20.8696 17.2773 20.7223 17.2773Z" fill="#C6AE98"/>
</svg>
