<svg width="40" height="40" viewBox="0 0 40 40" fill="none" xmlns="http://www.w3.org/2000/svg">
<mask id="mask0_789_1778" style="mask-type:luminance" maskUnits="userSpaceOnUse" x="1" y="3" width="38" height="33">
<path d="M3.75251 13.638L10.43 6.39304C10.5973 6.2149 10.7995 6.07321 11.0241 5.97685C11.2486 5.88049 11.4907 5.83153 11.735 5.83304H28.265C28.5094 5.83153 28.7514 5.88049 28.976 5.97685C29.2005 6.07321 29.4027 6.2149 29.57 6.39304L36.2475 13.638C36.5216 13.9293 36.6718 14.3157 36.6664 14.7156C36.6609 15.1155 36.5003 15.4977 36.2183 15.7814L20.625 33.458C20.5468 33.5467 20.4506 33.6177 20.3429 33.6664C20.2351 33.715 20.1182 33.7402 20 33.7402C19.8818 33.7402 19.7649 33.715 19.6571 33.6664C19.5494 33.6177 19.4532 33.5467 19.375 33.458L3.78167 15.7814C3.49973 15.4977 3.33908 15.1155 3.33364 14.7156C3.3282 14.3157 3.47839 13.9293 3.75251 13.638Z" fill="white" stroke="white" stroke-width="4" stroke-linecap="round" stroke-linejoin="round"/>
<path d="M13.3333 16.666L19.9999 24.166L26.6666 16.666" stroke="black" stroke-width="4" stroke-linecap="round" stroke-linejoin="round"/>
</mask>
<g mask="url(#mask0_789_1778)">
<path d="M0 0H40V40H0V0Z" fill="#C6AE98"/>
</g>
</svg>
