<svg width="12" height="13" viewBox="0 0 12 13" fill="none" xmlns="http://www.w3.org/2000/svg">
<path d="M9.96364 0.5C9.69669 0.500646 9.4325 0.554147 9.18633 0.657415C8.94015 0.760683 8.71686 0.911674 8.52934 1.10168L0.724557 8.90622L0.693955 9.06071L0.153993 11.7754L0 12.5L0.72505 12.346L3.43967 11.806L3.59366 11.7749L11.3984 3.97039C11.5889 3.78318 11.7402 3.55991 11.8435 3.3136C11.9468 3.06729 12 2.80287 12 2.53578C12 2.2687 11.9468 2.00428 11.8435 1.75797C11.7402 1.51166 11.5889 1.28839 11.3984 1.10118C11.2108 0.911211 10.9874 0.760276 10.7412 0.657092C10.4949 0.553908 10.2306 0.500517 9.96364 0.5ZM9.96364 1.44077C10.2124 1.44077 10.4631 1.55429 10.704 1.79566C11.1842 2.27542 11.1842 2.79615 10.704 3.27641L10.3496 3.6155L8.88372 2.15005L9.22329 1.79566C9.46464 1.55429 9.71488 1.44077 9.96364 1.44077ZM8.19025 2.84452L9.65516 4.30997L3.68645 10.2784C3.36423 9.64791 2.85123 9.13524 2.22056 8.81343L8.19025 2.84452ZM1.58879 9.61599C1.88091 9.73352 2.14625 9.90887 2.3689 10.1315C2.59154 10.3542 2.76689 10.6195 2.88441 10.9116L1.26452 11.2354L1.58879 9.61599Z" fill="#C6AE98"/>
</svg>
