<svg width="19" height="16" viewBox="0 0 19 16" fill="none" xmlns="http://www.w3.org/2000/svg">
<path d="M4.19344 3.62286C4.19344 3.62286 4.20927 5.79124 5.36589 8.03429C6.55497 10.1935 8.19371 11.5802 9.54587 12.1333C10.9432 11.504 12.2929 10.413 13.0292 9.2381H9.19359C8.20163 8.44571 7.42026 7.13295 7.24134 5.61524H18.4933C17.9383 8.05562 16.7611 10.275 15.6393 11.6884C14.0771 13.652 11.9668 15.1474 9.55458 16H9.51896C5.48306 14.4526 3.31232 12.0152 1.87941 9.26476C0.961079 7.50248 0 4.30248 0 0H18.9999C19.003 1.21182 18.9184 2.42237 18.7466 3.62286H4.19344Z" fill="#C6AE98"/>
</svg>
