<svg width="24" height="24" viewBox="0 0 24 24" fill="none" xmlns="http://www.w3.org/2000/svg">
<path d="M12 12.7143C10.9686 12.7143 9.97945 12.2878 9.25014 11.5288C8.52083 10.7697 8.11111 9.74016 8.11111 8.66667H9.66667C9.66667 9.31076 9.9125 9.92848 10.3501 10.3839C10.7877 10.8394 11.3812 11.0952 12 11.0952C12.6188 11.0952 13.2123 10.8394 13.6499 10.3839C14.0875 9.92848 14.3333 9.31076 14.3333 8.66667H15.8889C15.8889 9.74016 15.4792 10.7697 14.7499 11.5288C14.0206 12.2878 13.0314 12.7143 12 12.7143ZM12 4.61905C12.6188 4.61905 13.2123 4.87491 13.6499 5.33036C14.0875 5.78581 14.3333 6.40352 14.3333 7.04762H9.66667C9.66667 6.40352 9.9125 5.78581 10.3501 5.33036C10.7877 4.87491 11.3812 4.61905 12 4.61905ZM17.4444 7.04762H15.8889C15.8889 6.51608 15.7883 5.98974 15.5929 5.49866C15.3974 5.00758 15.111 4.56138 14.7499 4.18552C14.3887 3.80966 13.96 3.51152 13.4882 3.30811C13.0164 3.10469 12.5107 3 12 3C10.9686 3 9.97945 3.42644 9.25014 4.18552C8.52083 4.9446 8.11111 5.97412 8.11111 7.04762H6.55556C5.69222 7.04762 5 7.7681 5 8.66667V18.381C5 18.8104 5.16389 19.2222 5.45561 19.5258C5.74733 19.8294 6.143 20 6.55556 20H17.4444C17.857 20 18.2527 19.8294 18.5444 19.5258C18.8361 19.2222 19 18.8104 19 18.381V8.66667C19 8.23727 18.8361 7.82546 18.5444 7.52183C18.2527 7.2182 17.857 7.04762 17.4444 7.04762Z" fill="#C6AE98"/>
</svg>
