<svg width="24" height="24" viewBox="0 0 24 24" fill="none" xmlns="http://www.w3.org/2000/svg">
<path d="M18.7506 5.25169H18.7494L20.7593 5.65343C20.8672 5.67502 20.956 5.75417 20.9872 5.8609C21.0029 5.91275 21.0043 5.96789 20.9912 6.02047C20.9781 6.07305 20.951 6.1211 20.9128 6.15951L19.2663 7.80726C19.0693 8.0039 18.8023 8.11431 18.5239 8.11427H17.1592L13.7294 11.5453C13.7948 11.7923 13.8069 12.0505 13.7647 12.3026C13.7225 12.5547 13.6271 12.7949 13.4848 13.0072C13.3426 13.2195 13.1567 13.3991 12.9395 13.5339C12.7224 13.6688 12.4791 13.7558 12.2257 13.7892C11.9723 13.8226 11.7147 13.8017 11.47 13.7277C11.2254 13.6538 10.9993 13.5285 10.8068 13.3604C10.6144 13.1922 10.4599 12.9849 10.3539 12.7524C10.2478 12.5198 10.1925 12.2674 10.1917 12.0118C10.1918 11.7358 10.2555 11.4636 10.3776 11.2162C10.4998 10.9687 10.6772 10.7527 10.8961 10.5847C11.1151 10.4168 11.3697 10.3014 11.6404 10.2475C11.911 10.1937 12.1904 10.2028 12.457 10.2741L15.888 6.84188V5.47835C15.888 5.20012 15.9983 4.93269 16.195 4.73602L17.8428 3.08827C17.8812 3.05005 17.9292 3.02295 17.9818 3.00986C18.0344 2.99677 18.0895 2.99817 18.1414 3.01392C18.2481 3.0451 18.3273 3.13384 18.3488 3.24177L18.7506 5.25169Z" fill="#C6AE98"/>
<path d="M4.79498 12.0118C4.79621 13.0407 5.01809 14.0574 5.44565 14.9932C5.8732 15.9291 6.49649 16.7624 7.27347 17.4368C8.05045 18.1113 8.96305 18.6113 9.9497 18.9031C10.9363 19.195 11.9741 19.2718 12.993 19.1284C14.0118 18.985 14.9881 18.6248 15.8559 18.0721C16.7237 17.5193 17.4629 16.7869 18.0236 15.9242C18.5843 15.0615 18.9534 14.0886 19.1061 13.0711C19.2588 12.0536 19.1915 11.0152 18.9088 10.0259C18.8691 9.91029 18.8533 9.78784 18.8625 9.66597C18.8716 9.54411 18.9054 9.42538 18.9619 9.31701C19.0184 9.20865 19.0964 9.11291 19.191 9.03563C19.2857 8.95835 19.3951 8.90114 19.5126 8.86749C19.6301 8.83385 19.7532 8.82446 19.8744 8.83991C19.9956 8.85535 20.1124 8.89531 20.2177 8.95734C20.323 9.01937 20.4146 9.10219 20.4869 9.20074C20.5591 9.29929 20.6106 9.41151 20.6381 9.53058C21.1856 11.4464 21.0816 13.4897 20.3424 15.3401C19.6033 17.1904 18.2708 18.743 16.554 19.7543C14.8372 20.7656 12.8333 21.1784 10.8566 20.9279C8.87988 20.6774 7.04228 19.7777 5.63205 18.3701C4.22336 16.9603 3.32277 15.1225 3.07168 13.1453C2.8206 11.1682 3.23323 9.16363 4.2448 7.4464C5.25637 5.72916 6.80958 4.39649 8.66059 3.65761C10.5116 2.91874 12.5556 2.8155 14.4716 3.36411C14.6998 3.4308 14.8922 3.58509 15.007 3.79326C15.1217 4.00143 15.1494 4.24655 15.0839 4.47506C15.0185 4.70356 14.8652 4.89687 14.6577 5.01274C14.4502 5.1286 14.2052 5.15761 13.9763 5.09341C12.9049 4.786 11.7767 4.73168 10.6807 4.93471C9.58473 5.13774 8.55087 5.59259 7.66066 6.26338C6.77046 6.93418 6.04823 7.80259 5.55093 8.80015C5.05363 9.79771 4.79485 10.8972 4.79498 12.0118V12.0118Z" fill="#C6AE98"/>
<path d="M8.39269 12.0115C8.39276 12.667 8.57179 13.31 8.91048 13.8712C9.24916 14.4324 9.73464 14.8905 10.3145 15.1961C10.8945 15.5017 11.5468 15.6431 12.2012 15.6052C12.8556 15.5672 13.4872 15.3513 14.0279 14.9808C14.5685 14.6093 14.9973 14.0971 15.2678 13.4996C15.5384 12.902 15.6404 12.2419 15.5629 11.5906C15.542 11.4325 15.5635 11.2717 15.6253 11.1247C15.6872 10.9778 15.7871 10.85 15.9147 10.7544C16.0424 10.6589 16.1932 10.5991 16.3516 10.5812C16.5101 10.5634 16.6704 10.5881 16.8161 10.6528C16.9618 10.7166 17.088 10.8179 17.1817 10.9465C17.2755 11.075 17.3335 11.226 17.3498 11.3843C17.4801 12.4973 17.2607 13.6233 16.722 14.6059C16.1833 15.5886 15.3521 16.3791 14.3437 16.8679C13.3353 17.3567 12.1998 17.5195 11.0947 17.3336C9.98959 17.1477 8.96978 16.6224 8.17678 15.8306C7.38379 15.0389 6.85695 14.0198 6.66939 12.915C6.48183 11.8102 6.64286 10.6744 7.13012 9.6653C7.61737 8.65616 8.4067 7.82374 9.38853 7.28358C10.3704 6.74341 11.496 6.52229 12.6092 6.6509C12.7284 6.66196 12.8442 6.6967 12.9498 6.75309C13.0554 6.80948 13.1487 6.88639 13.2242 6.97929C13.2996 7.0722 13.3558 7.17924 13.3894 7.29415C13.423 7.40905 13.4333 7.5295 13.4197 7.64844C13.4062 7.76738 13.369 7.88241 13.3104 7.98679C13.2518 8.09118 13.1729 8.18281 13.0784 8.25633C12.984 8.32984 12.8758 8.38376 12.7602 8.41491C12.6446 8.44607 12.524 8.45384 12.4053 8.43776C11.9012 8.37923 11.3905 8.42801 10.9066 8.58089C10.4227 8.73377 9.97659 8.98729 9.59762 9.32481C9.21865 9.66232 8.91537 10.0762 8.70771 10.5392C8.50004 11.0023 8.39268 11.504 8.39269 12.0115V12.0115Z" fill="#C6AE98"/>
</svg>
