<svg width="40" height="40" viewBox="0 0 40 40" fill="none" xmlns="http://www.w3.org/2000/svg">
<path d="M31.2509 8.75217H31.2489L34.5987 9.42174C34.7786 9.45772 34.9265 9.58963 34.9785 9.76752C35.0047 9.85393 35.0071 9.94584 34.9853 10.0335C34.9634 10.1211 34.9183 10.2012 34.8546 10.2652L32.1103 13.0115C31.782 13.3392 31.337 13.5232 30.8731 13.5231H28.5986L22.8822 19.2415C22.9913 19.6533 23.0113 20.0836 22.941 20.5037C22.8708 20.9238 22.7117 21.3242 22.4746 21.678C22.2375 22.0319 21.9276 22.3312 21.5658 22.5559C21.2039 22.7807 20.7983 22.9257 20.376 22.9814C19.9537 23.0371 19.5243 23.0021 19.1166 22.8789C18.7088 22.7556 18.332 22.5469 18.0112 22.2666C17.6905 21.9863 17.4331 21.6409 17.2563 21.2533C17.0795 20.8657 16.9874 20.445 16.986 20.019C16.9863 19.5591 17.0923 19.1054 17.2959 18.693C17.4995 18.2805 17.7952 17.9205 18.1601 17.6405C18.525 17.3606 18.9494 17.1683 19.4005 17.0786C19.8516 16.9888 20.3173 17.0039 20.7616 17.1228L26.4799 11.4025V9.12993C26.4799 8.66622 26.6638 8.22051 26.9916 7.89271L29.7378 5.14647C29.8018 5.08276 29.8819 5.0376 29.9696 5.01578C30.0572 4.99396 30.1491 4.9963 30.2355 5.02254C30.4134 5.07451 30.5453 5.22242 30.5813 5.4023L31.2509 8.75217Z" fill="#C6AE98"/>
<path d="M7.99163 20.0193C7.99369 21.7342 8.36348 23.4286 9.07608 24.9884C9.78867 26.5481 10.8275 27.9369 12.1225 29.0611C13.4174 30.1852 14.9384 31.0186 16.5828 31.5049C18.2272 31.9913 19.9568 32.1193 21.6549 31.8803C23.3531 31.6414 24.9802 31.0411 26.4265 30.1198C27.8729 29.1986 29.1048 27.9779 30.0393 26.54C30.9738 25.1022 31.589 23.4806 31.8435 21.7848C32.098 20.089 31.9859 18.3583 31.5146 16.7094C31.4485 16.5168 31.4222 16.3127 31.4374 16.1096C31.4527 15.9065 31.5091 15.7086 31.6032 15.528C31.6974 15.3474 31.8273 15.1879 31.9851 15.0591C32.1428 14.9303 32.3252 14.8349 32.521 14.7788C32.7168 14.7228 32.922 14.7071 33.124 14.7329C33.326 14.7586 33.5207 14.8252 33.6962 14.9286C33.8717 15.032 34.0243 15.17 34.1448 15.3342C34.2652 15.4985 34.351 15.6855 34.3968 15.884C35.3093 19.077 35.1359 22.4826 33.904 25.5665C32.6721 28.6504 30.4513 31.238 27.59 32.9235C24.7287 34.609 21.3888 35.297 18.0943 34.8795C14.7998 34.4619 11.7371 32.9626 9.38674 30.6166C7.03893 28.2668 5.53795 25.2038 5.11947 21.9086C4.701 18.6133 5.38872 15.2724 7.07466 12.4103C8.76061 9.54828 11.3493 7.32716 14.4343 6.0957C17.5193 4.86424 20.926 4.69218 24.1194 5.60653C24.4996 5.71768 24.8204 5.97483 25.0116 6.32178C25.2028 6.66872 25.2489 7.07726 25.1399 7.4581C25.0308 7.83894 24.7754 8.16112 24.4295 8.35423C24.0836 8.54735 23.6753 8.59569 23.2939 8.48869C21.5082 7.97635 19.6279 7.8858 17.8012 8.22419C15.9745 8.56258 14.2515 9.32065 12.7678 10.4386C11.2841 11.5566 10.0804 13.004 9.25155 14.6666C8.42272 16.3292 7.99141 18.1616 7.99163 20.0193Z" fill="#C6AE98"/>
<path d="M13.9878 20.0191C13.9879 21.1116 14.2863 22.1833 14.8508 23.1187C15.4153 24.0541 16.2244 24.8175 17.1909 25.3268C18.1574 25.8361 19.2446 26.0718 20.3353 26.0086C21.426 25.9454 22.4786 25.5856 23.3798 24.968C24.2808 24.3489 24.9954 23.4952 25.4464 22.4993C25.8973 21.5034 26.0674 20.4032 25.9382 19.3176C25.9033 19.0542 25.9392 18.7862 26.0422 18.5412C26.1453 18.2963 26.3118 18.0833 26.5245 17.924C26.7373 17.7648 26.9886 17.6652 27.2527 17.6354C27.5168 17.6056 27.784 17.6468 28.0269 17.7546C28.2697 17.861 28.4799 18.0299 28.6362 18.2441C28.7924 18.4583 28.8891 18.7101 28.9163 18.9738C29.1335 20.8288 28.7678 22.7054 27.87 24.3432C26.9722 25.9809 25.5868 27.2986 23.9062 28.1132C22.2255 28.9279 20.3329 29.1991 18.4911 28.8893C16.6493 28.5795 14.9496 27.7041 13.628 26.3844C12.3063 25.0648 11.4282 23.3664 11.1157 21.525C10.8031 19.6837 11.0714 17.7907 11.8835 16.1088C12.6956 14.4269 14.0112 13.0396 15.6475 12.1393C17.2839 11.239 19.16 10.8705 21.0153 11.0848C21.214 11.1033 21.407 11.1612 21.583 11.2552C21.759 11.3491 21.9144 11.4773 22.0403 11.6322C22.1661 11.787 22.2597 11.9654 22.3157 12.1569C22.3717 12.3484 22.3888 12.5492 22.3662 12.7474C22.3436 12.9456 22.2816 13.1374 22.184 13.3113C22.0863 13.4853 21.9549 13.638 21.7974 13.7605C21.6399 13.8831 21.4596 13.9729 21.267 14.0249C21.0743 14.0768 20.8733 14.0897 20.6755 14.0629C19.8354 13.9654 18.9841 14.0467 18.1776 14.3015C17.3711 14.5563 16.6276 14.9788 15.996 15.5413C15.3644 16.1039 14.859 16.7936 14.5128 17.5654C14.1667 18.3371 13.9878 19.1733 13.9878 20.0191Z" fill="#C6AE98"/>
</svg>
