<svg width="36" height="36" viewBox="0 0 36 36" fill="none" xmlns="http://www.w3.org/2000/svg">
<path d="M21.5699 0.804689C21.7341 0.804396 21.8969 0.836481 22.0487 0.89911C22.2006 0.96174 22.3386 1.05368 22.4549 1.16969L34.8299 13.5447C35.0642 13.7791 35.1959 14.097 35.1959 14.4284C35.1959 14.7599 35.0642 15.0778 34.8299 15.3122C33.6299 16.5122 32.1499 16.7822 31.0724 16.7822C30.6299 16.7822 30.2349 16.7372 29.9224 16.6847L22.0874 24.5197C22.2936 25.3507 22.4275 26.1981 22.4874 27.0522C22.6024 28.8072 22.4074 31.2697 20.6874 32.9897C20.453 33.224 20.1351 33.3557 19.8036 33.3557C19.4722 33.3557 19.1543 33.224 18.9199 32.9897L11.8474 25.9197L3.89239 33.8747C3.40489 34.3622 0.844889 36.1297 0.357389 35.6422C-0.130111 35.1547 1.63739 32.5922 2.12489 32.1072L10.0799 24.1522L3.00989 17.0797C2.77555 16.8453 2.64391 16.5274 2.64391 16.1959C2.64391 15.8645 2.77555 15.5466 3.00989 15.3122C4.72989 13.5922 7.19239 13.3947 8.94739 13.5122C9.80153 13.572 10.6489 13.7059 11.4799 13.9122L19.3149 6.07969C19.2495 5.69898 19.216 5.31347 19.2149 4.92719C19.2149 3.85219 19.4849 2.37219 20.6874 1.16969C20.9217 0.936017 21.239 0.80476 21.5699 0.804689Z" fill="#C6AE98"/>
</svg>
