<svg width="24" height="24" viewBox="0 0 24 24" fill="none" xmlns="http://www.w3.org/2000/svg">
<path d="M15.7252 3.99512C15.3612 3.99512 15.0121 4.13972 14.7547 4.39712C14.4973 4.65452 14.3527 5.00362 14.3527 5.36764C14.3527 5.73165 14.4973 6.08076 14.7547 6.33816C15.0121 6.59556 15.3612 6.74016 15.7252 6.74016C16.0892 6.74016 16.4383 6.59556 16.6957 6.33816C16.9531 6.08076 17.0977 5.73165 17.0977 5.36764C17.0977 5.00362 16.9531 4.65452 16.6957 4.39712C16.4383 4.13972 16.0892 3.99512 15.7252 3.99512ZM9.54887 6.74016C9.20574 6.74016 8.17635 6.74016 8.86261 7.76955L10.5783 10.8577H8.17635C7.79616 10.8618 7.46676 10.995 7.14696 11.2009C6.04071 9.65128 5.07719 10.2428 4.07251 10.8577C3.51938 11.1967 2.95253 11.5426 2.34313 11.544C2.253 11.5467 2.16731 11.5838 2.10355 11.6475C2.03979 11.7113 2.00275 11.797 2 11.8871C2.00275 11.9773 2.03979 12.0629 2.10355 12.1267C2.16731 12.1905 2.253 12.2275 2.34313 12.2303C2.8592 12.2577 3.45076 12.1026 4.04231 11.9461C4.94269 11.7087 5.84032 11.4726 6.46619 11.8871C6.33717 12.1438 6.11757 12.9165 6.11757 13.6028L6.11482 15.6753C5.83208 15.9553 5.59464 15.8441 5.35307 15.7302C5.16092 15.641 4.96465 15.5518 4.74504 15.6616L3.37252 19.7105C3.37252 20.0536 3.91192 20.125 4.05878 19.7791L5.08817 17.369C6.11482 17.369 8.17635 16.3478 8.86261 14.9753L14.3527 16.3478L17.784 19.7791C18.0544 20.0495 18.635 19.5897 18.4154 19.2507L15.7252 14.9753L18.4703 11.544C18.8107 12.2303 19.1497 12.2303 19.8236 12.2303H19.8428L20.6663 13.2596C21.1988 13.9253 22.3408 13.25 21.9016 12.5734L19.6149 9.19698L19.8428 8.79895C19.9279 8.54228 19.3446 8.00837 19.1565 8.11268L16.4115 10.1715L14.2017 6.99682C14.1374 6.9167 14.0559 6.85204 13.9633 6.80762C13.8706 6.7632 13.7692 6.74014 13.6664 6.74016H9.54887ZM14.3527 9.82834L15.039 10.8577L11.3016 13.4875C11.2267 13.5406 11.1419 13.5781 11.0522 13.5979C10.9626 13.6176 10.8698 13.6192 10.7796 13.6024C10.6893 13.5857 10.6033 13.551 10.5267 13.5004C10.45 13.4499 10.3843 13.3844 10.3334 13.308C10.2825 13.2316 10.2475 13.1457 10.2304 13.0555C10.2133 12.9653 10.2145 12.8726 10.2338 12.7829C10.2532 12.6931 10.2904 12.6082 10.3432 12.533C10.396 12.4579 10.4633 12.3942 10.5412 12.3455L14.3527 9.82834Z" fill="#C6AE98"/>
</svg>
