<svg width="20" height="20" viewBox="0 0 20 20" fill="none" xmlns="http://www.w3.org/2000/svg">
<path d="M8.49699 0V5.38L10 7.44L11.503 5.38V0H8.49699ZM11.503 5.38V7.94L13.9279 7.14L17.1142 2.8L14.6693 1.02L11.503 5.38ZM13.9279 7.14L12.4249 9.22L14.8697 10L20 8.34L19.0581 5.48L13.9279 7.14ZM14.8697 10L12.4249 10.78L13.9279 12.86L19.0581 14.52L20 11.66L14.8697 10ZM13.9279 12.86L11.503 12.06V14.62L14.6693 18.98L17.1142 17.2L13.9279 12.86ZM11.503 14.62L10 12.56L8.49699 14.62V20H11.503V14.62ZM8.49699 14.62V12.06L6.07214 12.86L2.88577 17.2L5.33066 18.98L8.49699 14.62ZM6.07214 12.86L7.57515 10.78L5.13026 10L0 11.66L0.941884 14.52L6.07214 12.86ZM5.13026 10L7.57515 9.22L6.07214 7.14L0.941884 5.48L0 8.34L5.13026 10ZM6.07214 7.14L8.49699 7.94V5.38L5.33066 1.02L2.88577 2.8L6.07214 7.14Z" fill="white"/>
</svg>
