<svg width="13" height="13" viewBox="0 0 13 13" fill="none" xmlns="http://www.w3.org/2000/svg">
<path d="M12.0322 8.02466L11.155 7.27494C11.1966 7.02012 11.2181 6.75993 11.2181 6.50109C11.2181 6.24224 11.1966 5.98071 11.155 5.72723L12.0322 4.97751C12.0984 4.92079 12.1459 4.84524 12.1681 4.76091C12.1904 4.67658 12.1865 4.58747 12.1569 4.50542L12.1448 4.47055C11.9034 3.79552 11.5417 3.16982 11.0773 2.62375L11.0531 2.59559C10.9967 2.52927 10.9215 2.48159 10.8375 2.45885C10.7535 2.43611 10.6645 2.43936 10.5824 2.46817L9.49333 2.85577C9.09097 2.52584 8.64302 2.26566 8.15752 2.0846L7.94695 0.945941C7.93106 0.860162 7.88945 0.781248 7.82765 0.719681C7.76584 0.658115 7.68677 0.616812 7.60093 0.601259L7.56472 0.594553C6.8673 0.468482 6.13234 0.468482 5.43493 0.594553L5.39872 0.601259C5.31288 0.616812 5.2338 0.658115 5.172 0.719681C5.11019 0.781248 5.06858 0.860162 5.05269 0.945941L4.84079 2.08996C4.35988 2.27246 3.91188 2.53202 3.51437 2.85846L2.41729 2.46817C2.33516 2.43913 2.24614 2.43576 2.16205 2.45852C2.07797 2.48128 2.0028 2.52908 1.94653 2.59559L1.92239 2.62375C1.45874 3.1704 1.09713 3.79595 0.854816 4.47055L0.842746 4.50542C0.782393 4.67307 0.832017 4.86083 0.967475 4.97751L1.85533 5.73528C1.81376 5.98742 1.79364 6.24492 1.79364 6.49975C1.79364 6.75725 1.81376 7.01476 1.85533 7.26422L0.970158 8.02198C0.903898 8.0787 0.856475 8.15425 0.834195 8.23858C0.811914 8.32291 0.815832 8.41202 0.845428 8.49407L0.857499 8.52894C1.10025 9.20355 1.45835 9.8272 1.92507 10.3757L1.94922 10.4039C2.00562 10.4702 2.08079 10.5179 2.16483 10.5406C2.24886 10.5634 2.33782 10.5601 2.41997 10.5313L3.51705 10.141C3.91672 10.4696 4.36199 10.7298 4.84347 10.9095L5.05538 12.0536C5.07126 12.1393 5.11287 12.2182 5.17468 12.2798C5.23649 12.3414 5.31556 12.3827 5.4014 12.3982L5.43761 12.4049C6.14188 12.5317 6.86313 12.5317 7.5674 12.4049L7.60361 12.3982C7.68945 12.3827 7.76852 12.3414 7.83033 12.2798C7.89214 12.2182 7.93375 12.1393 7.94963 12.0536L8.1602 10.9149C8.6457 10.7325 9.09366 10.4736 9.49601 10.1437L10.585 10.5313C10.6672 10.5604 10.7562 10.5637 10.8403 10.541C10.9244 10.5182 10.9995 10.4704 11.0558 10.4039L11.0799 10.3757C11.5467 9.82452 11.9048 9.20355 12.1475 8.52894L12.1596 8.49407C12.2173 8.32777 12.1676 8.14134 12.0322 8.02466ZM6.5025 8.72475C5.20022 8.72475 4.14472 7.66925 4.14472 6.36697C4.14472 5.06469 5.20022 4.00918 6.5025 4.00918C7.80479 4.00918 8.86029 5.06469 8.86029 6.36697C8.86029 7.66925 7.80479 8.72475 6.5025 8.72475Z" fill="#C6AE98"/>
</svg>
