<svg width="77" height="23" viewBox="0 0 77 23" fill="none" xmlns="http://www.w3.org/2000/svg">
<path d="M33.0884 6.23145L31.3258 14.4571L29.3606 6.23145H26.3813V16.815H28.44V8.98336L30.047 16.815H32.6042L34.2111 8.98336V16.815H36.2698V6.23145H33.0884Z" fill="white"/>
<path d="M43.4281 7.8191V6.23145H37.6431V16.815H43.4281V15.228H39.7021V12.3089H43.1335V10.7216H39.7021V7.8191H43.4281Z" fill="white"/>
<path d="M48.6381 6.18555H46.5023C44.8953 6.18555 44.334 7.03269 44.334 8.07508V14.9858C44.334 16.0286 44.8957 16.8602 46.5023 16.8602H46.7523L47.3593 17.8932L48.6738 17.4511L48.3114 16.8595H48.6381C50.2451 16.8595 50.8064 16.0286 50.8064 14.9852V8.07508C50.8064 7.03269 50.2447 6.18555 48.6381 6.18555ZM48.7488 14.713C48.7488 15.0454 48.562 15.2732 48.1721 15.2732H46.9705C46.5809 15.2732 46.3937 15.0454 46.3937 14.713V8.33265C46.3937 7.99996 46.5809 7.77251 46.9705 7.77251H48.1721C48.562 7.77251 48.7488 7.99996 48.7488 8.33265V14.713Z" fill="white"/>
<path d="M56.4536 6.23145V14.7132C56.4536 15.0456 56.2657 15.2734 55.8761 15.2734H54.6766C54.287 15.2734 54.0988 15.0456 54.0988 14.7132V6.23145H52.0405V14.9867C52.0405 16.0295 52.6019 16.861 54.2085 16.861H56.3457C57.9527 16.861 58.5137 16.0302 58.5137 14.9867V6.23145H56.4536Z" fill="white"/>
<path d="M65.6247 7.8191V6.23145H59.8372V16.815H65.6247V15.228H61.8969V12.3089H65.3276V10.7216H61.8969V7.8191H65.6247Z" fill="white"/>
<path d="M72.6744 9.29993V8.07508C72.6744 7.03269 72.1127 6.18555 70.5065 6.18555H68.6653C67.0583 6.18555 66.4973 7.03269 66.4973 8.07508V10.4496C66.4973 11.4924 67.059 12.3395 68.6653 12.3395H70.0383C70.4279 12.3395 70.6157 12.5659 70.6157 12.8983V14.713C70.6157 15.0454 70.4279 15.2732 70.0383 15.2732H69.1334C68.7438 15.2732 68.556 15.0454 68.556 14.713V13.7454H66.4966V14.9858C66.4966 16.0286 67.0583 16.8602 68.6645 16.8602H70.5057C72.1127 16.8602 72.6737 16.0293 72.6737 14.9858V12.6421C72.6737 11.5983 72.112 10.7512 70.5057 10.7512H69.1327C68.7431 10.7512 68.5553 10.5248 68.5553 10.1924V8.33265C68.5553 7.99996 68.7431 7.77251 69.1327 7.77251H70.0376C70.4272 7.77251 70.615 7.99996 70.615 8.33265V9.29993H72.6744Z" fill="white"/>
<path d="M22.553 7.09265C22.2213 6.21435 21.9031 5.40321 21.6196 4.69247C21.68 4.66018 21.726 4.60748 21.7489 4.5444C21.7719 4.48133 21.77 4.41229 21.7439 4.35043L20.6997 1.75569C20.6857 1.72169 20.665 1.6907 20.6386 1.66452C20.6123 1.63834 20.5808 1.61748 20.5461 1.60316C20.5113 1.58883 20.474 1.58132 20.4363 1.58106C20.3985 1.5808 20.3611 1.58779 20.3262 1.60163L17.5808 2.64749C17.5457 2.66101 17.5137 2.68113 17.4867 2.7067C17.4597 2.73226 17.4382 2.76276 17.4234 2.79643C17.4087 2.8301 17.4009 2.86628 17.4007 2.90287C17.4004 2.93946 17.4076 2.97574 17.4219 3.00961L18.4728 5.59743C18.4867 5.63146 18.5075 5.66248 18.5338 5.6887C18.5602 5.71492 18.5916 5.73581 18.6264 5.75017C18.6611 5.76452 18.6984 5.77206 18.7362 5.77235C18.7739 5.77263 18.8114 5.76566 18.8463 5.75183L18.9292 5.71721C19.4756 7.17123 20.0566 8.92195 20.2365 10.2562C20.6168 13.0327 19.4481 18.5912 14.3512 18.5912C9.25428 18.5912 8.09227 13.0396 8.4658 10.2572C8.64435 8.91606 9.22678 7.16639 9.77279 5.71825L9.85599 5.75287C9.92679 5.77867 10.0051 5.77702 10.0747 5.74826C10.1443 5.7195 10.1997 5.66585 10.2295 5.59846L11.2805 3.01065C11.3072 2.94207 11.3056 2.86613 11.276 2.79867C11.2464 2.7312 11.1911 2.67742 11.1216 2.64853L8.36081 1.60163C8.29007 1.57581 8.21177 1.57741 8.14221 1.6061C8.07265 1.63479 8.01716 1.68837 7.98729 1.75569L6.94456 4.34385C6.91878 4.40571 6.91719 4.47456 6.94007 4.53747C6.96295 4.60039 7.00874 4.65304 7.06883 4.68555C6.78529 5.40321 6.46818 6.21435 6.13537 7.09265C4.77303 10.6796 4.69697 14.2935 6.29428 17.2836C8.52829 21.467 12.8089 21.9902 12.8367 22.2263C12.8574 22.4073 14.3444 22.5011 14.3444 22.5011C14.3444 22.5011 15.831 22.4073 15.8517 22.2263C15.8796 21.9919 20.1605 21.4622 22.3941 17.2853C23.9986 14.2932 23.9154 10.6796 22.553 7.09265ZM20.8518 17.7728C18.5075 20.9173 14.3526 21.4806 14.3526 21.4806C14.3526 21.4806 10.1892 20.9173 7.85337 17.7728C6.00395 15.2989 5.8254 12.53 6.17679 10.4248C6.52818 8.31956 7.53377 5.93947 7.66375 5.77191C7.92658 5.42987 8.63185 5.55069 8.65256 6.16726C8.65256 6.16726 7.33129 9.14455 7.23488 11.5915C7.13846 14.0384 8.08549 16.6459 9.73136 18.1083C11.7233 19.8721 14.3512 20.0591 14.3512 20.0591C14.3512 20.0591 16.9791 19.8714 18.971 18.1083C20.6168 16.6466 21.5642 14.0384 21.4675 11.5915C21.3707 9.14455 20.0498 6.16726 20.0498 6.16726C20.0705 5.55069 20.7829 5.43644 21.0386 5.77191C21.17 5.93947 22.1727 8.31956 22.5255 10.4248C22.8784 12.53 22.6916 15.2989 20.8518 17.7728Z" fill="white"/>
<path d="M6.92383 9.78101C7.02839 9.78101 7.12866 9.74075 7.2026 9.66907C7.27653 9.5974 7.31807 9.50018 7.31807 9.39882C7.31807 9.29745 7.27653 9.20024 7.2026 9.12856C7.12866 9.05688 7.02839 9.01661 6.92383 9.01661C6.87213 9.0162 6.82085 9.02577 6.773 9.04476C6.72515 9.06375 6.68168 9.09178 6.64512 9.12723C6.60855 9.16267 6.57964 9.20482 6.56005 9.25121C6.54046 9.2976 6.53059 9.3473 6.53102 9.39743C6.53176 9.49846 6.57329 9.5952 6.64671 9.6669C6.72014 9.73861 6.81962 9.77957 6.92383 9.78101Z" fill="white"/>
<path d="M14.3442 20.4141C14.2665 20.4141 14.1906 20.4364 14.126 20.4783C14.0614 20.5201 14.011 20.5796 13.9813 20.6492C13.9516 20.7187 13.9438 20.7953 13.959 20.8692C13.9741 20.9431 14.0115 21.0109 14.0665 21.0642C14.1214 21.1174 14.1914 21.1537 14.2676 21.1684C14.3438 21.1831 14.4228 21.1755 14.4945 21.1467C14.5663 21.1179 14.6277 21.0691 14.6708 21.0065C14.714 20.9438 14.737 20.8702 14.737 20.7949C14.7375 20.7448 14.7276 20.6951 14.708 20.6487C14.6884 20.6023 14.6595 20.5601 14.6229 20.5247C14.5864 20.4892 14.5429 20.4612 14.4951 20.4422C14.4472 20.4232 14.3959 20.4137 14.3442 20.4141Z" fill="white"/>
<path d="M9.50344 18.3086C9.39892 18.3086 9.29869 18.3488 9.22479 18.4205C9.15089 18.4921 9.10938 18.5893 9.10938 18.6906C9.10938 18.7919 9.15089 18.8891 9.22479 18.9608C9.29869 19.0324 9.39892 19.0726 9.50344 19.0726C9.55514 19.0731 9.60641 19.0635 9.65426 19.0445C9.70211 19.0255 9.74559 18.9975 9.78215 18.962C9.81871 18.9266 9.84763 18.8844 9.86722 18.8381C9.88681 18.7917 9.89667 18.742 9.89625 18.6918C9.89657 18.6416 9.88666 18.5918 9.86706 18.5454C9.84747 18.4989 9.81859 18.4566 9.78208 18.421C9.74557 18.3854 9.70216 18.3571 9.65434 18.3378C9.60652 18.3185 9.55523 18.3086 9.50344 18.3086Z" fill="white"/>
<path d="M6.92385 14.0986C6.81933 14.0986 6.7191 14.1389 6.6452 14.2105C6.5713 14.2822 6.52979 14.3793 6.52979 14.4807C6.52979 14.582 6.5713 14.6791 6.6452 14.7508C6.7191 14.8224 6.81933 14.8627 6.92385 14.8627C6.97555 14.8631 7.02682 14.8535 7.07467 14.8345C7.12252 14.8156 7.166 14.7875 7.20256 14.7521C7.23912 14.7166 7.26804 14.6745 7.28763 14.6281C7.30722 14.5817 7.31708 14.532 7.31666 14.4819C7.31698 14.4317 7.30707 14.3819 7.28747 14.3354C7.26788 14.2889 7.239 14.2466 7.20249 14.211C7.16598 14.1754 7.12257 14.1471 7.07475 14.1279C7.02693 14.1086 6.97564 14.0986 6.92385 14.0986Z" fill="white"/>
<path d="M21.7717 9.0166C21.694 9.0166 21.6181 9.03894 21.5535 9.08078C21.4889 9.12262 21.4385 9.1821 21.4088 9.25168C21.3791 9.32127 21.3713 9.39784 21.3865 9.47171C21.4016 9.54558 21.439 9.61344 21.494 9.66669C21.5489 9.71995 21.6189 9.75622 21.6951 9.77092C21.7713 9.78561 21.8503 9.77807 21.922 9.74924C21.9938 9.72042 22.0552 9.67161 22.0983 9.60899C22.1415 9.54636 22.1645 9.47274 22.1645 9.39742C22.163 9.29689 22.1211 9.20091 22.0477 9.12982C21.9744 9.05873 21.8754 9.01812 21.7717 9.0166Z" fill="white"/>
<path d="M19.1919 18.3086C19.1142 18.3086 19.0382 18.3309 18.9736 18.3728C18.9091 18.4146 18.8587 18.4741 18.829 18.5437C18.7992 18.6133 18.7915 18.6898 18.8066 18.7637C18.8218 18.8376 18.8592 18.9054 18.9141 18.9587C18.9691 19.0119 19.0391 19.0482 19.1152 19.0629C19.1914 19.0776 19.2704 19.0701 19.3422 19.0412C19.414 19.0124 19.4753 18.9636 19.5185 18.901C19.5617 18.8384 19.5847 18.7647 19.5847 18.6894C19.5847 18.5884 19.5433 18.4916 19.4696 18.4201C19.396 18.3487 19.2961 18.3086 19.1919 18.3086Z" fill="white"/>
<path d="M21.7717 14.0986C21.694 14.0986 21.6181 14.121 21.5535 14.1628C21.4889 14.2047 21.4385 14.2641 21.4088 14.3337C21.3791 14.4033 21.3713 14.4799 21.3865 14.5537C21.4016 14.6276 21.439 14.6955 21.494 14.7487C21.5489 14.802 21.6189 14.8383 21.6951 14.8529C21.7713 14.8676 21.8503 14.8601 21.922 14.8313C21.9938 14.8025 22.0552 14.7536 22.0983 14.691C22.1415 14.6284 22.1645 14.5548 22.1645 14.4794C22.163 14.3789 22.1212 14.2829 22.0478 14.2118C21.9745 14.1406 21.8754 14.1001 21.7717 14.0986Z" fill="white"/>
<path d="M17.5047 15.9622H17.5322C17.5418 15.9618 17.5513 15.9596 17.56 15.9556V15.9622C17.5529 16.0896 17.6014 16.6594 17.6568 17.2161C18.097 16.8519 18.4772 16.4246 18.7842 15.949C18.7842 15.7008 18.7635 15.4931 18.7149 15.3387C18.6894 15.1983 18.6476 15.0611 18.5903 14.9298C18.4728 14.6349 18.3485 14.3129 18.3206 14.1589C18.3139 14.1319 18.3139 14.1052 18.3067 14.0782C18.3346 14.065 18.0992 14.0782 18.0992 14.0782C18.0232 14.0851 17.9471 14.0851 17.8782 14.0917C17.7284 14.0995 17.5781 14.0973 17.4286 14.0851C17.2765 14.0782 17.1311 14.0581 16.9858 14.045L16.6126 13.9844C16.6126 14.045 16.6194 14.1052 16.6194 14.1575C16.6115 14.3961 16.5624 14.6318 16.4741 14.8547C16.2666 15.1562 16.2805 15.6728 16.3291 16.1488C16.3359 16.2025 16.3427 16.2558 16.3498 16.3094C16.3566 16.3499 16.3634 16.3967 16.3705 16.4438C16.3705 16.4569 16.3773 16.4784 16.3773 16.4905C16.3844 16.5251 16.3845 16.5511 16.3912 16.5843C16.3912 16.5978 16.398 16.6189 16.398 16.6314C16.4052 16.666 16.4052 16.6986 16.4119 16.7318C16.4119 16.7453 16.4187 16.7664 16.4187 16.7789C16.4273 16.8141 16.432 16.85 16.4327 16.8862C16.4327 16.9063 16.4398 16.9263 16.4398 16.9464C16.4476 16.9772 16.4522 17.0086 16.4534 17.0402C16.4534 17.0603 16.4605 17.0749 16.4605 17.0939C16.4673 17.1285 16.4741 17.1611 16.4812 17.1947C16.4812 17.2147 16.488 17.2293 16.488 17.2483C16.4948 17.2829 16.5019 17.3151 16.5087 17.3421C16.5159 17.3622 16.5159 17.3823 16.5226 17.4024C16.5312 17.4286 16.5364 17.4556 16.5384 17.483C16.5451 17.5035 16.5451 17.5301 16.5519 17.5502C16.5591 17.5772 16.5591 17.5973 16.5659 17.6174C16.5726 17.644 16.5726 17.6641 16.5798 17.6911C16.5834 17.7092 16.5881 17.7271 16.5937 17.7448C16.6009 17.7688 16.6055 17.7935 16.6073 17.8185C16.6073 17.832 16.6144 17.8452 16.6144 17.8587C16.9036 17.7265 17.1787 17.567 17.4358 17.3826C17.47 16.7868 17.5186 16.0896 17.5047 15.9622Z" fill="white"/>
<path d="M15.6027 12.0059C15.3813 11.8384 15.1531 11.6307 14.9735 11.5033C14.9667 11.3759 14.8282 11.2686 14.7235 11.2014C14.7285 11.1921 14.7311 11.1818 14.7311 11.1713C14.7311 11.1608 14.7285 11.1504 14.7235 11.1412C14.7164 11.1211 14.6543 11.1547 14.6543 11.1412C14.661 11.1211 14.6957 11.0674 14.675 11.0338C14.6682 11.0203 14.6057 11.0273 14.6057 11.0273C14.6148 10.9968 14.6195 10.9652 14.6196 10.9334C14.6057 10.9134 14.5839 10.8933 14.5575 10.9134C14.512 10.9525 14.4725 10.9976 14.44 11.0473C14.4328 11.0674 14.44 10.9601 14.4536 10.8742C14.4671 10.7884 14.4179 10.7468 14.4054 10.7403C14.3914 10.7403 14.3432 10.8947 14.3293 10.9213C14.3154 10.948 14.2807 11.1159 14.2936 11.1491C14.2936 11.156 14.3075 11.1695 14.335 11.1962C14.3421 11.2097 14.3211 11.2308 14.3557 11.2564C14.3629 11.2634 14.3836 11.2765 14.3914 11.2911C14.3993 11.3056 14.4054 11.3257 14.4121 11.3381C14.4193 11.3447 14.4328 11.3513 14.44 11.3582C14.4471 11.3651 14.4607 11.3928 14.4675 11.3984C14.4814 11.4119 14.5032 11.425 14.5089 11.433C14.5639 11.4929 14.6126 11.5579 14.6543 11.6272L14.661 11.6677C14.6841 11.6848 14.7098 11.6983 14.7371 11.7079C14.8757 11.9291 15.1106 12.2241 15.2974 12.4654C15.567 12.8074 15.8923 12.9483 16.0116 12.8341C16.0598 12.7873 16.2258 12.5917 16.2673 12.5661C16.2605 12.4588 16.2258 12.365 16.2398 12.2576C16.2537 12.1032 16.2398 11.9963 16.3158 11.8554C16.2673 11.9893 16.2673 12.1368 16.2744 12.2777V12.2978C16.2812 12.3781 16.2951 12.4588 16.3101 12.5401C16.3458 12.7548 16.6072 13.3312 16.6351 13.6867C16.8701 13.6597 17.1054 13.6396 17.3404 13.6061C17.465 13.586 17.61 13.586 17.8867 13.4856C18.0181 13.3848 18.191 13.3381 18.1981 13.0833C18.2049 12.9023 18.2256 12.1579 18.2256 12.1579V12.1448C18.2394 12.3259 18.2463 12.5069 18.2463 12.6876C18.2486 12.813 18.244 12.9384 18.2324 13.0632C18.2281 13.1295 18.2142 13.1949 18.191 13.2574C18.1418 13.3208 18.0887 13.3813 18.0321 13.4385C17.9901 13.4717 17.9435 13.4989 17.8935 13.5192C17.8323 13.5401 17.7701 13.558 17.7071 13.5728C17.5805 13.5979 17.4526 13.6165 17.3239 13.6286C17.2411 13.6351 17.0197 13.6687 16.985 13.6687C16.8883 13.6753 16.7847 13.6888 16.6879 13.6957C16.6646 13.6947 16.6413 13.6969 16.6187 13.7023C16.5957 13.699 16.5723 13.699 16.5494 13.7023C16.5214 13.6736 16.4914 13.6468 16.4597 13.622C16.4458 13.6151 16.3005 13.5548 16.273 13.5212C16.2455 13.4877 16.2373 13.4541 16.2244 13.4475C16.2176 13.4409 16.1209 13.461 16.1623 13.5348C16.2037 13.6085 16.273 13.6622 16.273 13.6822C16.273 13.7089 16.1002 13.7425 16.0587 13.7359C16.023 13.729 15.7823 13.6486 15.7684 13.6421C15.7545 13.6421 15.7198 13.6351 15.7131 13.6486C15.7116 13.6779 15.7216 13.7065 15.7409 13.729C15.7545 13.7425 15.7198 13.756 15.727 13.7695C15.7341 13.783 15.7545 13.8297 15.7545 13.8297C15.7597 13.8556 15.7691 13.8804 15.7823 13.9034C15.8138 13.9403 15.8511 13.972 15.893 13.9973C15.9066 14.0038 16.1212 14.0845 16.1766 14.0776C16.2248 14.0776 16.5083 13.9772 16.5569 13.9571C16.5637 13.9571 16.5705 13.9637 16.5776 13.9637L16.6397 13.9706L17.0133 14.0243C17.1586 14.0308 17.3107 14.0444 17.4557 14.0509C17.601 14.0444 17.7532 14.0575 17.8985 14.0374L18.1199 14.0173L18.3202 13.9827H18.341C18.3895 13.9762 18.4377 13.9626 18.4931 13.9481C18.499 13.9375 18.5015 13.9255 18.5002 13.9135V13.8789C18.6109 13.7314 18.597 13.3627 18.7352 12.6585C18.8459 12.0953 18.7905 11.5455 18.5899 11.5123C18.5441 11.5053 18.4974 11.5053 18.4517 11.5123C18.3212 11.457 18.1873 11.41 18.0506 11.3714C17.9746 11.3111 17.8721 11.2104 17.8364 11.1367C17.8089 11.0764 17.8007 10.9154 17.7949 10.7815V10.6876C17.8173 10.6715 17.8383 10.6536 17.8574 10.634C17.9196 10.7509 17.9594 10.8778 17.9749 11.0086C18.0163 11.3371 18.3345 11.3302 18.4392 11.3035C18.5438 11.2769 18.5499 11.156 18.5016 11.1626C18.4534 11.1692 18.3563 10.7818 18.4599 10.3044C18.557 9.87546 18.2942 9.60716 17.9899 9.60716C17.9571 9.60795 17.9245 9.61248 17.8928 9.62066C17.72 9.48668 17.4778 9.48668 17.4157 9.50676L17.4089 9.51334C17.3637 9.48816 17.3146 9.47006 17.2636 9.45968C17.0079 9.41294 16.8626 9.567 16.7865 9.72106C16.669 9.86196 16.6079 10.0631 16.6479 10.3044C16.7033 10.68 16.9454 10.9885 17.16 11.0754C17.1668 11.0754 17.1736 11.0688 17.1807 11.0688C17.2704 11.0489 17.3583 11.0221 17.4436 10.9885C17.5332 10.948 17.6221 10.8877 17.651 10.7873C17.6371 10.8877 17.5471 10.9604 17.4571 11.0151C17.4018 11.0498 17.16 11.0889 17.1529 11.0889C17.0975 11.1962 16.9525 11.3437 16.9029 11.3838C16.8268 11.3908 16.7301 11.4309 16.6747 11.4309C16.6377 11.4149 16.5978 11.4057 16.5572 11.4039C16.163 11.396 15.762 11.8117 15.6027 12.0059Z" fill="white"/>
<path d="M11.0454 17.223C11.1154 16.7558 11.2382 16.2974 11.4118 15.8562C11.5155 15.5692 11.7029 15.3176 11.9514 15.132C12.1298 15.0026 12.2882 14.8491 12.4217 14.6761C12.3259 14.8444 12.1938 14.9908 12.0342 15.105C11.9985 15.132 11.7578 15.3397 11.73 15.3667C11.9721 15.3802 12.3592 15.3266 12.6013 15.3266V15.3061C12.8988 15.3061 13.1891 15.2996 13.4866 15.3061C13.7008 15.3131 13.7633 15.3934 13.7147 15.5945C13.6594 15.8292 13.6112 16.064 13.4244 16.2523C13.2459 16.4333 13.1409 16.648 13.1616 16.9028C13.1755 17.0503 13.0855 17.1171 12.9473 17.1507C12.8159 17.1853 12.6706 17.2043 12.6013 17.3452C12.5117 17.5329 12.5252 17.726 12.5656 17.9216C12.5935 18.049 12.7177 18.0947 12.8563 18.056C13.1062 17.9822 13.2848 17.8077 13.4441 17.6267C13.5755 17.4726 13.694 17.3251 13.8937 17.2514C14.0665 17.1842 14.1436 17.0302 14.1565 16.8557C14.1621 16.8113 14.1644 16.7665 14.1633 16.7217C14.1367 16.2981 14.225 15.8751 14.4193 15.4948C14.585 15.1798 14.4882 14.918 14.26 14.6702C14.0179 14.4084 13.7137 14.2745 13.3748 14.2142C13.2159 14.1872 12.9738 14.0467 12.7941 13.9996C12.8504 13.8599 12.8966 13.7166 12.9323 13.5707C13.0084 13.2888 13.0223 13.0008 12.9045 12.7256C12.8026 12.4717 12.7857 12.1931 12.8563 11.9293C12.967 11.4599 13.0638 10.9839 13.1605 10.5148C13.1749 10.4395 13.1957 10.3655 13.2227 10.2936C13.2437 10.2305 13.2716 10.1698 13.3059 10.1125C13.2919 10.1056 13.2852 10.1056 13.2702 10.099C13.1662 10.0588 13.0973 9.9716 13.0488 9.89128C12.952 9.71818 12.9241 9.53574 12.9034 9.35468C12.8827 9.18158 12.8206 9.00606 12.7652 8.8385C12.7099 8.6654 12.6477 8.49646 12.5785 8.3289C12.6545 8.49646 12.7306 8.65744 12.7999 8.825C12.8691 8.99256 12.9452 9.16046 12.9784 9.34152C13.0011 9.51554 13.0574 9.68384 13.1445 9.83762C13.1863 9.90545 13.2487 9.95921 13.323 9.99168C13.3566 10.0037 13.3913 10.0128 13.4266 10.0187C13.5026 9.99826 13.6051 10.0388 13.7655 10.1257C13.8559 10.1825 13.9536 10.2276 14.0561 10.26C14.4918 10.3805 14.7682 10.6623 14.9489 11.051C15.004 11.1678 15.096 11.2645 15.2115 11.3271C15.3271 11.3898 15.4602 11.4152 15.5917 11.3997C15.8059 11.365 16.062 11.0978 16.0895 10.8565C16.1203 10.6308 16.0904 10.4012 16.0027 10.19C15.9131 9.96883 15.8241 9.73999 15.747 9.51289C15.6931 9.37216 15.656 9.22593 15.6363 9.07703C15.5809 8.5856 15.4263 8.10955 15.1814 7.67597C15.2642 7.58184 15.3382 7.48082 15.4028 7.37409C15.451 7.26677 15.5063 7.15287 15.5131 7.03897C15.5142 7.02525 15.5119 7.01148 15.5063 6.99882C15.4833 6.95295 15.4443 6.91641 15.3962 6.89558C15.3482 6.87476 15.2941 6.87098 15.2435 6.88492C15.2078 6.89149 15.1742 6.905 15.1399 6.91157C15.1042 6.92508 14.9614 6.97874 14.8632 7.01197C14.8564 6.93823 14.8564 6.86449 14.8564 6.79075C14.8425 6.38189 14.7871 6.34831 14.4414 6.56295C14.2629 6.67685 14.1093 6.75059 13.8812 6.67028C13.6598 6.58961 13.4248 6.63566 13.1966 6.72394C13.0084 6.79463 12.8139 6.84851 12.6156 6.88492C12.4774 6.91157 12.3806 6.91157 12.3806 7.08571C12.3806 7.12622 12.2767 7.17295 12.2074 7.20653C12.0139 7.29377 11.841 7.40767 11.7925 7.60881C11.7096 7.92385 11.4814 8.07825 11.1979 8.19735C11.0597 8.25101 10.8865 8.27109 10.9212 8.4923C10.9283 8.52692 10.8104 8.58647 10.7483 8.62663C10.5269 8.78069 10.4234 9.0019 10.4787 9.25671C10.5341 9.51151 10.443 9.69257 10.2644 9.86012C10.2023 9.92036 10.1123 10.0145 10.1262 10.0748C10.1884 10.3562 10.002 10.4099 9.7945 10.4635C9.60059 10.5106 9.40169 10.5439 9.20636 10.5975C9.00977 10.6489 8.82138 10.7261 8.64642 10.8271C8.53501 12.7647 9.11601 15.6544 11.0454 17.223Z" fill="white"/>
</svg>
