<svg width="21" height="17" viewBox="0 0 21 17" fill="none" xmlns="http://www.w3.org/2000/svg">
<path d="M16.5 0.5H4.5C2.29 0.5 0.5 2.29 0.5 4.5V12.5C0.5 14.71 2.29 16.5 4.5 16.5H16.5C18.71 16.5 20.5 14.71 20.5 12.5V4.5C20.5 2.29 18.71 0.5 16.5 0.5ZM14.64 10.27C14.4 10.47 14.07 10.55 13.76 10.47L2.65 7.75C2.95 7.02 3.66 6.5 4.5 6.5H16.5C17.17 6.5 17.76 6.84 18.13 7.34L14.64 10.27ZM4.5 2.5H16.5C17.6 2.5 18.5 3.4 18.5 4.5V5.05C17.91 4.71 17.23 4.5 16.5 4.5H4.5C3.77 4.5 3.09 4.71 2.5 5.05V4.5C2.5 3.4 3.4 2.5 4.5 2.5Z" fill="#C6AE98"/>
</svg>
